HIERARCHY
ROOT Hips
{
	OFFSET	0.00	0.00	0.00
	CHANNELS 6 Xposition Yposition Zposition Zrotation Xrotation Yrotation
	JOINT LeftUpLeg
	{
		OFFSET	 0.126116	-0.014019	-0.065224
		CHANNELS 3 Zrotation Xrotation Yrotation
		JOINT LeftLeg
		{
			OFFSET	 0.000000	 0.000000	 0.569914
			CHANNELS 3 Zrotation Xrotation Yrotation
			JOINT LeftFoot
			{
				OFFSET	 0.000000	 0.000000	 0.544423
				CHANNELS 3 Zrotation Xrotation Yrotation
				JOINT LeftToeBase
				{
					OFFSET	 0.000000	 0.000000	 0.207117
					CHANNELS 3 Zrotation Xrotation Yrotation
					End Site
					{
						OFFSET	 0.000000	 0.000000	 0.207117
					}
				}
			}
		}
	}
	JOINT RightUpLeg
	{
		OFFSET	-0.124023	-0.008373	-0.065224
		CHANNELS 3 Zrotation Xrotation Yrotation
		JOINT RightLeg
		{
			OFFSET	 0.000000	 0.000000	 0.570047
			CHANNELS 3 Zrotation Xrotation Yrotation
			JOINT RightFoot
			{
				OFFSET	 0.000000	 0.000000	 0.544354
				CHANNELS 3 Zrotation Xrotation Yrotation
				JOINT RightToeBase
				{
					OFFSET	 0.000000	 0.000000	 0.207540
					CHANNELS 3 Zrotation Xrotation Yrotation
					End Site
					{
						OFFSET	 0.000000	 0.000000	 0.207540
					}
				}
			}
		}
	}
	JOINT Spine
	{
		OFFSET	 0.000184	-0.007763	 0.117403
		CHANNELS 3 Zrotation Xrotation Yrotation
		JOINT Spine1
		{
			OFFSET	 0.000000	 0.000000	 0.137269
			CHANNELS 3 Zrotation Xrotation Yrotation
			JOINT Spine2
			{
				OFFSET	 0.000000	 0.000000	 0.156879
				CHANNELS 3 Zrotation Xrotation Yrotation
				JOINT LeftShoulder
				{
					OFFSET	 0.080501	-0.002496	 0.160144
					CHANNELS 3 Zrotation Xrotation Yrotation
					JOINT LeftArm
					{
						OFFSET	 0.000000	 0.000000	 0.164363
						CHANNELS 3 Zrotation Xrotation Yrotation
						JOINT LeftForeArm
						{
							OFFSET	 0.000000	 0.000000	 0.364576
							CHANNELS 3 Zrotation Xrotation Yrotation
							JOINT LeftHand
							{
								OFFSET	 0.000000	 0.000000	 0.360812
								CHANNELS 3 Zrotation Xrotation Yrotation
								JOINT LeftHandIndex1
								{
									OFFSET	 0.000000	 0.000000	 0.086006
									CHANNELS 3 Zrotation Xrotation Yrotation
									JOINT LeftHandIndex2
									{
										OFFSET	 0.000000	 0.000000	 0.047237
										CHANNELS 3 Zrotation Xrotation Yrotation
										JOINT LeftHandIndex3
										{
											OFFSET	-0.004284	-0.000551	 0.038165
											CHANNELS 3 Zrotation Xrotation Yrotation
											End Site
											{
												OFFSET	-0.004284	-0.000551	 0.038165
											}
										}
									}
								}
							}
						}
					}
				}
				JOINT Neck
				{
					OFFSET	 0.000000	 0.000000	 0.176489
					CHANNELS 3 Zrotation Xrotation Yrotation
					JOINT Head
					{
						OFFSET	 0.000000	-0.001747	 0.077940
						CHANNELS 3 Zrotation Xrotation Yrotation
						End Site
						{
							OFFSET	 0.000000	-0.001747	 0.077940
						}
					}
				}
				JOINT RightShoulder
				{
					OFFSET	-0.080363	 0.000306	 0.159706
					CHANNELS 3 Zrotation Xrotation Yrotation
					JOINT RightArm
					{
						OFFSET	 0.000000	 0.000000	 0.164196
						CHANNELS 3 Zrotation Xrotation Yrotation
						JOINT RightForeArm
						{
							OFFSET	 0.000000	 0.000000	 0.365611
							CHANNELS 3 Zrotation Xrotation Yrotation
							JOINT RightHand
							{
								OFFSET	 0.000000	 0.000000	 0.360648
								CHANNELS 3 Zrotation Xrotation Yrotation
								JOINT RightHandIndex1
								{
									OFFSET	 0.000000	 0.000000	 0.069977
									CHANNELS 3 Zrotation Xrotation Yrotation
									JOINT RightHandIndex2
									{
										OFFSET	 0.000000	 0.000000	 0.052305
										CHANNELS 3 Zrotation Xrotation Yrotation
										JOINT RightHandIndex3
										{
											OFFSET	 0.009002	-0.000782	 0.042196
											CHANNELS 3 Zrotation Xrotation Yrotation
											End Site
											{
												OFFSET	 0.009002	-0.000782	 0.042196
											}
										}
									}
								}
							}
						}
					}
				}
			}
		}
	}
}
MOTION
Frames:    11
Frame Time: 0.03333334
-0.713499	-0.031233	 1.269846	 169.420600	-8.592066	-0.788193	-11.816040	 2.019822	-174.832500	-1.797255	-29.824310	-1.623081	-16.267850	 78.813660	 4.878788	-2.385833	 28.452760	 0.000004	-13.446220	-1.499003	-171.344700	 10.408440	-32.614540	 5.775793	-5.489507	 83.986210	 5.551765	 2.384659	 28.388700	-0.000001	 19.578820	 3.387925	-14.086390	 9.107956	 4.001030	-1.226774	-1.341322	 6.934005	 1.586722	-91.776190	 78.527400	-180.000000	-22.138280	 48.443650	-19.999350	-25.720500	 20.653230	-69.964470	-63.505690	-62.069890	-41.706420	-4.130354	 21.526190	 0.991307	-5.167926	 0.731697	 3.519349	-1.378229	 35.397820	-2.634230	 14.836240	 5.172535	-3.675783	 5.499849	-14.105170	-4.786672	 89.782060	 78.203850	-180.000000	-49.206740	 1.741362	 92.526090	 11.373890	 0.597733	 131.195100	-14.775050	-39.110150	-4.414986	 5.716295	 19.173350	-3.684826	 5.027458	 0.246833	-9.377971	-2.350882	 35.473990	 5.254307
-0.711621	-0.031931	 1.268920	 168.958300	-7.688286	-0.413646	-12.641200	 0.775412	-174.789500	-1.486534	-29.954860	-1.474037	-14.486510	 78.746600	 2.942663	-2.385833	 28.452760	 0.000004	-14.070270	-2.993968	-171.368200	 10.828090	-32.984550	 6.067853	-2.682888	 83.808340	 2.619364	 2.384659	 28.388700	-0.000001	 21.073640	 0.637897	-14.161780	 10.494380	 6.365905	-1.010233	-1.350595	 5.124510	 1.190130	-91.776160	 78.527360	 180.000000	-31.281190	 42.754760	-22.187680	-25.316320	 21.258830	-71.479870	-66.058580	-61.741890	-43.537930	-4.130354	 21.526190	 0.991307	-5.167926	 0.731697	 3.519349	-1.378229	 35.397820	-2.634230	 15.086210	 5.395756	-4.512278	 5.332879	-16.057220	-5.132989	 89.782060	 78.203870	-180.000000	-48.629010	 0.810061	 93.059240	 12.473750	-0.686325	 130.041100	-19.303390	-36.889920	-5.364765	 5.716295	 19.173350	-3.684826	 5.027458	 0.246833	-9.377971	-2.350882	 35.473990	 5.254307
-0.710677	-0.031493	 1.268926	 168.406800	-6.321866	-0.367273	-13.827640	-0.394053	-174.818500	-1.116149	-29.628240	-1.276029	-13.056470	 78.439530	 1.479981	-2.385833	 28.452760	 0.000004	-14.776830	-4.830263	-171.519800	 11.349830	-33.659570	 6.473827	-1.248823	 84.336970	 1.220774	 2.384659	 28.388700	-0.000001	 23.334540	-3.220968	-13.859580	 12.747270	 8.635942	-1.409177	-1.493915	 3.339715	 0.853987	-91.776180	 78.527360	 180.000000	-39.433660	 37.313220	-30.139120	-26.117140	 21.337440	-69.551640	-67.875370	-61.216960	-44.399540	-4.130354	 21.526190	 0.991307	-5.167926	 0.731697	 3.519349	-1.378229	 35.397820	-2.634230	 15.154090	 5.917601	-5.181691	 5.215616	-18.618370	-5.350895	 89.782130	 78.203820	 180.000000	-46.111300	-0.343481	 94.628920	 14.162820	-2.921673	 127.820000	-26.145570	-32.582500	-8.586209	 5.716295	 19.173350	-3.684826	 5.027458	 0.246833	-9.377971	-2.350882	 35.473990	 5.254307
-0.713460	-0.029974	 1.270194	 168.021800	-5.676533	 0.041675	-14.970500	-0.687857	-174.917000	-0.752241	-29.648940	-1.096563	-12.424980	 79.146780	 0.684045	-2.385833	 28.452760	 0.000004	-15.543320	-5.108371	-171.724300	 11.642950	-33.273420	 6.574307	 0.905457	 84.311900	-0.979450	 2.384659	 28.388700	-0.000001	 24.943230	-5.752477	-13.747930	 14.555030	 9.652712	-4.045247	-1.751903	 2.567919	 1.724884	-91.776180	 78.527400	-180.000000	-43.031890	 35.588460	-37.033950	-27.295700	 20.886170	-66.275600	-68.697810	-60.953220	-44.559570	-4.130354	 21.526190	 0.991307	-5.167926	 0.731697	 3.519349	-1.378229	 35.397820	-2.634230	 14.868730	 5.291307	-5.076153	 4.994899	-19.076790	-5.776377	 89.782060	 78.203890	-180.000000	-43.919240	-1.751132	 95.682930	 15.223210	-4.762335	 124.992800	-30.858820	-29.232830	-10.039120	 5.716295	 19.173350	-3.684826	 5.027458	 0.246833	-9.377971	-2.350882	 35.473990	 5.254307
-0.717833	-0.027743	 1.272130	 167.702100	-5.130066	 0.475027	-15.687700	-1.174033	-175.073200	-0.485269	-29.702810	-0.965976	-10.875460	 78.942430	-0.742608	-2.385833	 28.452760	 0.000004	-16.352440	-5.917584	-171.926500	 12.106700	-33.305300	 6.842553	 3.205368	 84.479580	-3.241161	 2.384659	 28.388700	-0.000001	 27.202260	-8.669629	-13.653400	 17.021260	 9.985247	-7.079886	-2.338996	 2.116811	 2.737181	-91.776120	 78.527360	 180.000000	-43.883510	 33.660140	-45.641080	-28.881490	 19.972050	-61.537200	-67.042550	-60.590960	-42.456720	-4.130354	 21.526190	 0.991307	-5.167926	 0.731697	 3.519349	-1.378229	 35.397820	-2.634230	 14.195510	 5.216777	-4.672984	 4.385885	-20.744180	-7.290586	 89.782110	 78.203870	 180.000000	-39.362460	-2.481838	 98.282140	 15.818960	-7.079294	 119.086100	-35.674190	-24.670100	-12.221310	 5.716295	 19.173350	-3.684826	 5.027458	 0.246833	-9.377971	-2.350882	 35.473990	 5.254307
-0.719838	-0.024441	 1.273440	 167.541600	-4.255393	 1.044102	-16.915550	-1.891675	-175.441800	-0.138039	-29.700330	-0.793711	-8.845471	 78.869110	-2.812572	-2.385833	 28.452760	 0.000004	-17.274580	-6.785308	-172.186300	 12.637180	-33.670130	 7.212181	 9.883840	 85.010410	-10.021320	 2.384659	 28.388700	-0.000001	 29.178960	-11.696870	-13.320650	 19.227810	 10.122260	-8.280993	-2.900617	 2.037671	 2.643322	-91.776190	 78.527430	-180.000000	-42.225660	 32.367950	-54.140470	-30.016140	 18.883610	-57.557970	-63.933910	-60.298660	-39.194880	-4.130354	 21.526190	 0.991307	-5.167926	 0.731697	 3.519349	-1.378229	 35.397820	-2.634230	 13.431870	 4.141272	-4.274117	 3.634696	-20.933050	-9.192567	 89.782030	 78.203890	-179.999900	-33.883870	-0.651610	 101.554900	 15.355380	-8.842090	 111.462900	-37.247210	-20.341200	-12.815650	 5.716295	 19.173350	-3.684826	 5.027458	 0.246833	-9.377971	-2.350882	 35.473990	 5.254307
-0.721893	-0.019150	 1.274059	 167.528700	-3.674735	 1.637727	-18.221250	-2.588322	-175.514100	 0.319287	-29.880050	-0.570158	-7.438961	 78.800220	-4.385233	-2.385833	 28.452760	 0.000004	-18.187740	-7.337482	-172.126100	 13.087680	-33.882030	 7.512086	 15.276520	 85.164870	-15.509860	 2.384659	 28.388700	-0.000001	 30.811200	-13.880280	-12.789350	 20.952080	 9.676290	-9.023588	-3.394319	 2.205370	 2.423959	-91.776130	 78.527380	 180.000000	-40.227110	 31.229760	-60.733110	-30.806150	 17.828500	-54.283340	-60.590650	-59.964370	-35.826590	-4.130354	 21.526190	 0.991307	-5.167926	 0.731697	 3.519349	-1.378229	 35.397820	-2.634230	 12.828920	 3.846582	-4.037577	 2.992715	-21.656670	-10.698910	 89.782090	 78.203890	-180.000000	-28.986590	 3.090644	 103.709700	 14.682590	-10.399850	 105.084400	-37.487200	-15.058520	-11.966040	 5.716295	 19.173350	-3.684826	 5.027458	 0.246833	-9.377971	-2.350882	 35.473990	 5.254307
-0.722693	-0.013915	 1.274412	 167.558700	-3.109840	 2.070395	-19.776510	-3.240389	-175.686800	 0.896793	-30.198720	-0.285099	-7.668947	 78.902090	-4.302421	-2.385833	 28.452760	 0.000004	-19.568630	-7.542214	-172.100800	 13.486230	-33.694260	 7.705564	 18.237060	 85.418970	-18.448410	 2.384659	 28.388700	-0.000001	 32.412290	-16.242130	-11.807990	 22.726590	 10.261400	-10.143820	-4.020625	 1.449971	 2.135948	-91.776180	 78.527380	-180.000000	-38.468380	 29.832390	-65.824640	-30.985240	 17.221770	-52.961210	-56.810440	-59.363090	-32.066960	-4.130354	 21.526190	 0.991307	-5.167926	 0.731697	 3.519349	-1.378229	 35.397820	-2.634230	 12.165990	 3.688643	-4.330986	 2.439361	-22.384830	-10.182490	 89.782090	 78.203850	 180.000000	-23.434840	 8.740948	 103.280500	 13.695540	-11.890630	 98.664960	-37.118190	-9.556646	-7.640135	 5.716295	 19.173350	-3.684826	 5.027458	 0.246833	-9.377971	-2.350882	 35.473990	 5.254307
-0.723074	-0.008962	 1.273874	 167.458100	-2.474935	 2.840400	-21.480880	-3.697849	-176.080200	 1.373419	-30.735000	-0.046111	-8.044841	 79.495710	-4.073239	-2.385833	 28.452760	 0.000004	-21.191630	-7.842839	-172.601400	 13.873350	-33.589820	 7.907878	 19.417970	 85.430270	-19.663310	 2.384659	 28.388700	-0.000001	 33.815880	-18.428410	-10.819130	 24.232130	 10.733130	-12.061100	-4.649466	 0.732406	 2.238320	-91.776210	 78.527420	-180.000000	-37.761590	 28.847470	-69.477810	-31.106900	 16.696120	-51.853030	-53.135140	-58.736270	-28.655170	-4.130354	 21.526190	 0.991307	-5.167926	 0.731697	 3.519349	-1.378229	 35.397820	-2.634230	 11.397550	 3.292730	-4.077018	 1.681493	-22.972360	-10.917470	 89.782100	 78.203900	 180.000000	-17.265200	 12.701490	 107.554400	 11.824480	-12.450390	 89.663300	-39.091890	-4.026461	-5.553925	 5.716295	 19.173350	-3.684826	 5.027458	 0.246833	-9.377971	-2.350882	 35.473990	 5.254307
-0.723110	-0.005304	 1.273126	 167.414200	-1.783621	 3.441006	-22.944300	-4.273990	-176.485300	 1.787114	-31.388900	 0.168469	-7.363290	 80.081070	-5.014339	-2.385833	 28.452760	 0.000004	-22.607670	-8.376060	-173.188500	 14.296730	-33.713850	 8.178669	 24.157210	 85.620550	-24.613140	 2.384659	 28.388700	-0.000001	 34.978240	-20.143060	-9.913367	 25.373390	 10.812610	-13.060530	-5.232438	 0.280246	 1.941039	-91.776190	 78.527380	-180.000000	-37.376800	 28.077130	-72.405750	-31.277900	 16.139240	-50.543510	-50.119360	-58.151460	-26.061030	-4.130354	 21.526190	 0.991307	-5.167926	 0.731697	 3.519349	-1.378229	 35.397820	-2.634230	 10.620470	 2.855547	-3.845285	 0.952595	-23.430790	-12.225250	 89.782100	 78.203890	-180.000000	-11.598940	 16.119170	 110.582000	 9.787868	-12.611450	 80.425430	-42.391210	-0.670957	-4.025017	 5.716295	 19.173350	-3.684826	 5.027458	 0.246833	-9.377971	-2.350882	 35.473990	 5.254307
-0.723041	-0.002626	 1.272497	 167.419900	-1.174859	 4.110297	-23.940240	-4.812802	-177.117000	 2.196131	-32.182120	 0.390135	-6.783853	 80.313650	-5.955118	-2.385833	 28.452760	 0.000004	-23.730900	-8.666661	-173.943100	 14.613540	-33.683640	 8.356173	 25.671840	 85.362660	-26.420260	 2.384659	 28.388700	-0.000001	 35.562880	-21.552310	-9.570052	 26.168210	 10.661470	-13.196180	-5.578288	 0.420044	 1.320084	-91.776240	 78.527380	-180.000000	-37.300170	 27.336220	-74.609120	-31.424050	 15.655180	-49.377090	-47.975650	-57.680240	-24.287170	-4.130354	 21.526190	 0.991307	-5.167926	 0.731697	 3.519349	-1.378229	 35.397820	-2.634230	 9.721464	 1.653760	-2.400061	 0.189691	-23.075470	-15.572650	 89.782100	 78.203900	 180.000000	-6.536754	 18.218910	 111.975500	 8.269215	-11.829770	 72.814680	-44.275800	-0.545692	-1.782168	 5.716295	 19.173350	-3.684826	 5.027458	 0.246833	-9.377971	-2.350882	 35.473990	 5.254307
